<?xml version="1.0" encoding="utf-8"?>
<!-- Generator: Adobe Illustrator 23.0.0, SVG Export Plug-In . SVG Version: 6.00 Build 0)  -->
<svg version="1.1" id="레이어_1" xmlns="http://www.w3.org/2000/svg" xmlns:xlink="http://www.w3.org/1999/xlink" x="0px"
	 y="0px" viewBox="0 0 33 33" style="enable-background:new 0 0 33 33;" xml:space="preserve">
<style type="text/css">
	.st0{fill:url(#SVGID_1_);}
</style>
<g>
	<linearGradient id="SVGID_1_" gradientUnits="userSpaceOnUse" x1="0.8698" y1="16.453" x2="32.4787" y2="16.453">
		<stop  offset="0" style="stop-color:#FFB710"/>
		<stop  offset="1" style="stop-color:#FF8A02"/>
	</linearGradient>
	<path class="st0" d="M2.21,19.12c7.06-0.81,13.92-1.59,20.78-2.37c0-0.2,0.01-0.41,0.01-0.61c-6.84-0.78-13.68-1.56-20.79-2.37
		c-0.46-4.03-1-8.03-1.33-12.04C0.75,0.11,1.8-0.26,3.69,0.71c6.24,3.2,12.47,6.44,18.7,9.67c2.91,1.51,5.84,2.97,8.72,4.52
		c1.78,0.95,1.82,2.12,0.07,3.03c-9.27,4.83-18.55,9.63-27.86,14.39c-1.79,0.92-2.64,0.26-2.43-1.79
		C1.29,26.8,1.76,23.09,2.21,19.12z"/>
</g>
</svg>
